<svg fill="#0FC300" xmlns="http://www.w3.org/2000/svg" xmlns:xlink="http://www.w3.org/1999/xlink" version="1.1" x="0px" y="0px" viewBox="0 0 100 100" enable-background="new 0 0 100 100" xml:space="preserve"><path d="M50,5C25.1,5,5,25.1,5,50c0,24.9,20.1,45,45,45s45-20.1,45-45C95,25.1,74.9,5,50,5z M61.9,35.1c-0.7,1.4-1.6,2.6-2.7,3.6  c-2.5-2-5.7-3.2-9.2-3.2c-3.5,0-6.6,1.2-9.2,3.2c-1.1-1-2-2.3-2.7-3.6C41.4,32.5,45.5,31,50,31C54.5,31,58.6,32.5,61.9,35.1z   M17.3,66.3l-0.5,0.3c-4.1-9.7-0.5-21.2,8.9-26.6c1.2-0.7,2.4-1.2,3.6-1.7c-0.2-1.3-0.4-2.6-0.4-4c0-10.8,8.1-19.7,18.6-20.9v0.6  c-7.2,1.2-12.6,7.4-12.6,14.9c0,7.7,5.8,14.1,13.3,15c0,0,0,0,0.1-0.1c0.3,0,0.5,0.1,0.8,0.1v2c-1.9,0.4-3.3,2.1-3.3,4.2  c0,0.5,0.1,1,0.2,1.4L44,52.5c-4.4-6.5-13.2-8.6-20.1-4.6C17.4,51.7,14.8,59.5,17.3,66.3z M44.6,63.9c-0.3,1.5-0.9,2.9-1.7,4.2  c-7.1-2.8-12.1-9.8-12.1-17.9c0-0.9,0.1-1.7,0.2-2.5c0.2,0,0.4,0,0.6,0c1.3,0,2.7,0.2,3.9,0.6c-0.1,0.6-0.1,1.3-0.1,1.9  C35.3,56.4,39.1,61.7,44.6,63.9z M53.2,76.5c-1.1-0.7-2.2-1.4-3.2-2.3c-1,0.9-2.1,1.7-3.3,2.4C37.4,82,25.6,79.5,19.3,71l0.5-0.3  c4.6,5.6,12.7,7.2,19.2,3.5c7-4,9.6-12.8,5.9-20l1.9-0.9c0.8,0.8,1.8,1.2,3,1.2c1.1,0,2.1-0.4,2.9-1.1l2,1c-0.1,0.2-0.2,0.4-0.3,0.7  c0,0,0,0,0,0c-0.1,0.2-0.2,0.4-0.2,0.5c-2.6,6.8,0.1,14.7,6.6,18.5c6.5,3.8,14.6,2.1,19.2-3.5l0.5,0.3  C74.4,79.3,62.6,81.9,53.2,76.5z M64.6,48.2c1.3-0.4,2.6-0.6,3.9-0.6c0.2,0,0.4,0,0.6,0c0.1,0.9,0.2,1.7,0.2,2.6  c0,8.1-5,15-12.1,17.9c-0.8-1.3-1.4-2.7-1.7-4.2c5.4-2.2,9.3-7.5,9.3-13.7C64.7,49.5,64.7,48.8,64.6,48.2z M82.7,66.2  c2.5-6.8-0.1-14.6-6.6-18.4c-5-2.9-10.9-2.6-15.4,0.2c-1.7,1-3.2,2.4-4.3,4c0,0,0,0,0,0c-0.2,0.2-0.3,0.4-0.5,0.7L54,51.8  c0.2-0.5,0.3-1,0.3-1.5c0-2-1.4-3.7-3.3-4.2v-2c2.2-0.1,4.4-0.7,6.4-1.8c4.7-2.6,7.8-7.6,7.8-13.3c0-7.5-5.5-13.7-12.6-14.9v-0.6  C63,14.7,71.1,23.6,71.1,34.4c0,1.3-0.1,2.6-0.4,3.9c1.2,0.4,2.4,1,3.6,1.6c9.3,5.4,13,16.9,8.9,26.6L82.7,66.2z"></path></svg>